<mxfile host="app.diagrams.net" modified="2023-05-06T14:20:35.826Z" agent="Mozilla/5.0 (X11; Linux x86_64) AppleWebKit/537.36 (KHTML, like Gecko) Chrome/112.0.0.0 Safari/537.36" etag="h302jkxbwbKpifYbfVB9" version="21.2.9" type="device">
  <diagram id="R2lEEEUBdFMjLlhIrx00" name="Page-1">
    <mxGraphModel dx="2284" dy="1904" grid="1" gridSize="10" guides="1" tooltips="1" connect="1" arrows="1" fold="1" page="1" pageScale="1" pageWidth="850" pageHeight="1100" math="0" shadow="0" extFonts="Permanent Marker^https://fonts.googleapis.com/css?family=Permanent+Marker">
      <root>
        <mxCell id="0" />
        <mxCell id="1" parent="0" />
        <mxCell id="gnYtzhO3xVWt3Zl3aeUN-19" style="edgeStyle=orthogonalEdgeStyle;rounded=0;orthogonalLoop=1;jettySize=auto;html=1;entryX=0;entryY=0.5;entryDx=0;entryDy=0;" edge="1" parent="1" source="gnYtzhO3xVWt3Zl3aeUN-1" target="gnYtzhO3xVWt3Zl3aeUN-3">
          <mxGeometry relative="1" as="geometry" />
        </mxCell>
        <mxCell id="gnYtzhO3xVWt3Zl3aeUN-20" value="OOP" style="edgeLabel;html=1;align=center;verticalAlign=middle;resizable=0;points=[];" vertex="1" connectable="0" parent="gnYtzhO3xVWt3Zl3aeUN-19">
          <mxGeometry x="-0.1905" y="-1" relative="1" as="geometry">
            <mxPoint y="1" as="offset" />
          </mxGeometry>
        </mxCell>
        <mxCell id="gnYtzhO3xVWt3Zl3aeUN-22" value="Encapsulation" style="edgeLabel;html=1;align=center;verticalAlign=middle;resizable=0;points=[];" vertex="1" connectable="0" parent="gnYtzhO3xVWt3Zl3aeUN-19">
          <mxGeometry x="0.1587" y="-1" relative="1" as="geometry">
            <mxPoint y="1" as="offset" />
          </mxGeometry>
        </mxCell>
        <mxCell id="gnYtzhO3xVWt3Zl3aeUN-1" value="Structures" style="rounded=0;whiteSpace=wrap;html=1;" vertex="1" parent="1">
          <mxGeometry x="100" y="70" width="120" height="60" as="geometry" />
        </mxCell>
        <mxCell id="gnYtzhO3xVWt3Zl3aeUN-2" value="Model" style="rounded=0;whiteSpace=wrap;html=1;" vertex="1" parent="1">
          <mxGeometry x="590" y="70" width="120" height="60" as="geometry" />
        </mxCell>
        <mxCell id="gnYtzhO3xVWt3Zl3aeUN-4" value="Model Compilation" style="edgeStyle=orthogonalEdgeStyle;rounded=0;orthogonalLoop=1;jettySize=auto;html=1;entryX=0.5;entryY=1;entryDx=0;entryDy=0;" edge="1" parent="1" source="gnYtzhO3xVWt3Zl3aeUN-3" target="gnYtzhO3xVWt3Zl3aeUN-2">
          <mxGeometry relative="1" as="geometry" />
        </mxCell>
        <mxCell id="gnYtzhO3xVWt3Zl3aeUN-3" value="MLP" style="rounded=0;whiteSpace=wrap;html=1;" vertex="1" parent="1">
          <mxGeometry x="365" y="240" width="120" height="60" as="geometry" />
        </mxCell>
        <mxCell id="gnYtzhO3xVWt3Zl3aeUN-12" style="edgeStyle=orthogonalEdgeStyle;rounded=0;orthogonalLoop=1;jettySize=auto;html=1;entryX=0;entryY=0.5;entryDx=0;entryDy=0;" edge="1" parent="1" source="gnYtzhO3xVWt3Zl3aeUN-6" target="gnYtzhO3xVWt3Zl3aeUN-1">
          <mxGeometry relative="1" as="geometry" />
        </mxCell>
        <mxCell id="gnYtzhO3xVWt3Zl3aeUN-17" style="edgeStyle=orthogonalEdgeStyle;rounded=0;orthogonalLoop=1;jettySize=auto;html=1;entryX=0.5;entryY=1;entryDx=0;entryDy=0;exitX=0.5;exitY=0;exitDx=0;exitDy=0;" edge="1" parent="1" source="gnYtzhO3xVWt3Zl3aeUN-25" target="gnYtzhO3xVWt3Zl3aeUN-3">
          <mxGeometry relative="1" as="geometry">
            <mxPoint x="425" y="430" as="sourcePoint" />
          </mxGeometry>
        </mxCell>
        <mxCell id="gnYtzhO3xVWt3Zl3aeUN-24" value="Dependency Injection" style="edgeLabel;html=1;align=center;verticalAlign=middle;resizable=0;points=[];" vertex="1" connectable="0" parent="gnYtzhO3xVWt3Zl3aeUN-17">
          <mxGeometry x="-0.1846" y="-1" relative="1" as="geometry">
            <mxPoint as="offset" />
          </mxGeometry>
        </mxCell>
        <mxCell id="gnYtzhO3xVWt3Zl3aeUN-18" style="edgeStyle=orthogonalEdgeStyle;rounded=0;orthogonalLoop=1;jettySize=auto;html=1;entryX=0.5;entryY=1;entryDx=0;entryDy=0;exitX=0;exitY=0.5;exitDx=0;exitDy=0;" edge="1" parent="1" source="gnYtzhO3xVWt3Zl3aeUN-25" target="gnYtzhO3xVWt3Zl3aeUN-1">
          <mxGeometry relative="1" as="geometry">
            <mxPoint x="365" y="460" as="sourcePoint" />
          </mxGeometry>
        </mxCell>
        <mxCell id="gnYtzhO3xVWt3Zl3aeUN-23" value="Dependency Injection" style="edgeLabel;html=1;align=center;verticalAlign=middle;resizable=0;points=[];" vertex="1" connectable="0" parent="gnYtzhO3xVWt3Zl3aeUN-18">
          <mxGeometry x="-0.2374" y="1" relative="1" as="geometry">
            <mxPoint as="offset" />
          </mxGeometry>
        </mxCell>
        <mxCell id="gnYtzhO3xVWt3Zl3aeUN-25" value="calculations.py" style="shape=parallelogram;perimeter=parallelogramPerimeter;whiteSpace=wrap;html=1;fixedSize=1;" vertex="1" parent="1">
          <mxGeometry x="365" y="430" width="120" height="60" as="geometry" />
        </mxCell>
        <mxCell id="gnYtzhO3xVWt3Zl3aeUN-28" value="structures.py" style="swimlane;whiteSpace=wrap;html=1;" vertex="1" parent="1">
          <mxGeometry x="-280" y="-20" width="600" height="200" as="geometry" />
        </mxCell>
        <mxCell id="gnYtzhO3xVWt3Zl3aeUN-6" value="Perceptron Layer" style="rounded=0;whiteSpace=wrap;html=1;" vertex="1" parent="gnYtzhO3xVWt3Zl3aeUN-28">
          <mxGeometry x="80" y="90" width="120" height="60" as="geometry" />
        </mxCell>
        <mxCell id="gnYtzhO3xVWt3Zl3aeUN-29" value="model.py" style="swimlane;whiteSpace=wrap;html=1;" vertex="1" parent="1">
          <mxGeometry x="330" y="-20" width="430" height="380" as="geometry" />
        </mxCell>
      </root>
    </mxGraphModel>
  </diagram>
</mxfile>
